REM MD5 c1a6f5313d74a71fc49606748beb7ec7
FILE "Euro Demo 89 (Europe).bin" BINARY
  TRACK 01 MODE2/2352
    INDEX 01 00:00:00
  TRACK 02 AUDIO
    INDEX 00 52:42:33
    INDEX 01 52:44:33
  TRACK 03 AUDIO
    INDEX 00 55:13:35
    INDEX 01 55:15:35
  TRACK 04 AUDIO
    INDEX 00 58:57:48
    INDEX 01 58:59:48
REM LEADOUT 62:01:05
